<?xml version="1.0" standalone="no"?>
<!DOCTYPE svg PUBLIC "-//W3C//DTD SVG 20010904//EN"
 "http://www.w3.org/TR/2001/REC-SVG-20010904/DTD/svg10.dtd">
<svg version="1.0" xmlns="http://www.w3.org/2000/svg"
 width="246.000000pt" height="246.000000pt" viewBox="0 0 246.000000 246.000000"
 preserveAspectRatio="xMidYMid meet">
<metadata>
Created by potrace 1.14, written by Peter Selinger 2001-2017
</metadata>
<g transform="translate(0.000000,246.000000) scale(0.100000,-0.100000)"
fill="#000000" stroke="none">
<path d="M395 2448 c-164 -21 -310 -151 -355 -318 -15 -52 -21 -1650 -7 -1755
23 -181 181 -339 362 -362 33 -5 425 -8 870 -7 810 1 810 1 874 23 35 12 83
35 107 52 91 63 166 181 181 289 10 69 9 1667 -1 1735 -11 77 -69 187 -124
236 -56 50 -148 94 -217 105 -64 10 -1612 11 -1690 2z"/>
</g>
</svg>
